<svg width="49" height="24" viewBox="0 0 49 24" fill="none" xmlns="http://www.w3.org/2000/svg">
<path d="M12 17.27L16.15 19.78C16.91 20.24 17.84 19.56 17.64 18.7L16.54 13.98L20.21 10.8C20.88 10.22 20.52 9.12 19.64 9.04999L14.81 8.64L12.92 4.17999C12.58 3.36999 11.42 3.36999 11.08 4.17999L9.19001 8.62999L4.36001 9.03999C3.48001 9.10999 3.12001 10.21 3.79001 10.79L7.46001 13.97L6.36001 18.69C6.16001 19.55 7.09001 20.23 7.85001 19.77L12 17.27Z" fill="#F2BE22"/>
<path d="M32.284 17.14C31.8547 17.14 31.43 17.0933 31.01 17C30.5993 16.9067 30.212 16.776 29.848 16.608C29.4933 16.44 29.1853 16.244 28.924 16.02L29.512 14.648C29.9413 14.9747 30.3847 15.222 30.842 15.39C31.2993 15.5487 31.7707 15.628 32.256 15.628C32.844 15.628 33.3013 15.4787 33.628 15.18C33.964 14.872 34.132 14.4613 34.132 13.948C34.132 13.4253 33.9733 13.0053 33.656 12.688C33.3387 12.3613 32.9047 12.198 32.354 12.198C31.9527 12.198 31.5933 12.2773 31.276 12.436C30.9587 12.5853 30.6693 12.8187 30.408 13.136H29.204V7.13H35.266V8.614H30.954V11.75H30.492C30.7347 11.4233 31.052 11.1713 31.444 10.994C31.8453 10.8167 32.2887 10.728 32.774 10.728C33.3993 10.728 33.9407 10.8633 34.398 11.134C34.8647 11.3953 35.224 11.764 35.476 12.24C35.7373 12.7067 35.868 13.2527 35.868 13.878C35.868 14.522 35.7233 15.0913 35.434 15.586C35.1447 16.0713 34.7293 16.454 34.188 16.734C33.656 17.0047 33.0213 17.14 32.284 17.14ZM37.1505 17V15.054H39.1105V17H37.1505ZM44.0672 17.14C43.2925 17.14 42.6345 16.944 42.0932 16.552C41.5612 16.1507 41.1552 15.572 40.8752 14.816C40.6045 14.06 40.4692 13.136 40.4692 12.044C40.4692 10.9427 40.6045 10.0187 40.8752 9.272C41.1552 8.516 41.5612 7.94667 42.0932 7.564C42.6345 7.18133 43.2925 6.99 44.0672 6.99C44.8512 6.99 45.5092 7.18133 46.0412 7.564C46.5825 7.94667 46.9885 8.51133 47.2592 9.258C47.5299 10.0047 47.6652 10.9287 47.6652 12.03C47.6652 13.122 47.5252 14.0507 47.2452 14.816C46.9745 15.572 46.5732 16.1507 46.0412 16.552C45.5092 16.944 44.8512 17.14 44.0672 17.14ZM44.0672 15.67C44.7019 15.67 45.1685 15.3807 45.4672 14.802C45.7752 14.214 45.9292 13.29 45.9292 12.03C45.9292 10.7793 45.7752 9.874 45.4672 9.314C45.1685 8.74467 44.7019 8.46 44.0672 8.46C43.4419 8.46 42.9752 8.74467 42.6672 9.314C42.3592 9.874 42.2052 10.784 42.2052 12.044C42.2052 13.2947 42.3592 14.214 42.6672 14.802C42.9752 15.3807 43.4419 15.67 44.0672 15.67Z" fill="#1A3E3E"/>
</svg>
