<svg width="49" height="24" viewBox="0 0 49 24" fill="none" xmlns="http://www.w3.org/2000/svg">
<path d="M12 17.27L16.15 19.78C16.91 20.24 17.84 19.56 17.64 18.7L16.54 13.98L20.21 10.8C20.88 10.22 20.52 9.12 19.64 9.04999L14.81 8.64L12.92 4.17999C12.58 3.36999 11.42 3.36999 11.08 4.17999L9.19001 8.62999L4.36001 9.03999C3.48001 9.10999 3.12001 10.21 3.79001 10.79L7.46001 13.97L6.36001 18.69C6.16001 19.55 7.09001 20.23 7.85001 19.77L12 17.27Z" fill="#F2BE22"/>
<path d="M32.886 17V15.124H28.588V13.808L33.194 7.13H34.678V13.64H36.064V15.124H34.678V17H32.886ZM32.886 13.64V9.272H33.292L29.988 14.116V13.64H32.886ZM37.1505 17V15.054H39.1105V17H37.1505ZM44.1512 17.14C43.7219 17.14 43.2972 17.0933 42.8772 17C42.4665 16.9067 42.0792 16.776 41.7152 16.608C41.3605 16.44 41.0525 16.244 40.7912 16.02L41.3792 14.648C41.8085 14.9747 42.2519 15.222 42.7092 15.39C43.1665 15.5487 43.6379 15.628 44.1232 15.628C44.7112 15.628 45.1685 15.4787 45.4952 15.18C45.8312 14.872 45.9992 14.4613 45.9992 13.948C45.9992 13.4253 45.8405 13.0053 45.5232 12.688C45.2059 12.3613 44.7719 12.198 44.2212 12.198C43.8199 12.198 43.4605 12.2773 43.1432 12.436C42.8259 12.5853 42.5365 12.8187 42.2752 13.136H41.0712V7.13H47.1332V8.614H42.8212V11.75H42.3592C42.6019 11.4233 42.9192 11.1713 43.3112 10.994C43.7125 10.8167 44.1559 10.728 44.6412 10.728C45.2665 10.728 45.8079 10.8633 46.2652 11.134C46.7319 11.3953 47.0912 11.764 47.3432 12.24C47.6045 12.7067 47.7352 13.2527 47.7352 13.878C47.7352 14.522 47.5905 15.0913 47.3012 15.586C47.0119 16.0713 46.5965 16.454 46.0552 16.734C45.5232 17.0047 44.8885 17.14 44.1512 17.14Z" fill="#1A3E3E"/>
</svg>
