<svg width="49" height="24" viewBox="0 0 49 24" fill="none" xmlns="http://www.w3.org/2000/svg">
<path d="M12 17.27L16.15 19.78C16.91 20.24 17.84 19.56 17.64 18.7L16.54 13.98L20.21 10.8C20.88 10.22 20.52 9.12 19.64 9.04999L14.81 8.64L12.92 4.17999C12.58 3.36999 11.42 3.36999 11.08 4.17999L9.19 8.62999L4.36 9.03999C3.48 9.10999 3.12 10.21 3.79 10.79L7.46 13.97L6.36 18.69C6.16 19.55 7.09 20.23 7.85 19.77L12 17.27Z" fill="#F2BE22"/>
<path d="M32.886 17V15.124H28.588V13.808L33.194 7.13H34.678V13.64H36.064V15.124H34.678V17H32.886ZM32.886 13.64V9.272H33.292L29.988 14.116V13.64H32.886ZM37.1505 17V15.054H39.1105V17H37.1505ZM43.3112 17.14C42.9659 17.14 42.6159 17.0933 42.2612 17C41.9159 16.916 41.5845 16.79 41.2672 16.622C40.9592 16.454 40.6792 16.2533 40.4272 16.02L41.0292 14.676C41.3652 14.9933 41.7292 15.2313 42.1212 15.39C42.5225 15.5487 42.9239 15.628 43.3252 15.628C43.7359 15.628 44.0952 15.558 44.4032 15.418C44.7205 15.2687 44.9865 15.054 45.2012 14.774C45.4159 14.4847 45.5745 14.13 45.6772 13.71C45.7892 13.2807 45.8452 12.786 45.8452 12.226V11.176H45.9992C45.9339 11.6427 45.7799 12.0487 45.5372 12.394C45.2945 12.7393 44.9865 13.0053 44.6132 13.192C44.2492 13.3693 43.8339 13.458 43.3672 13.458C42.8072 13.458 42.3079 13.3227 41.8692 13.052C41.4305 12.7813 41.0805 12.408 40.8192 11.932C40.5672 11.4467 40.4412 10.9007 40.4412 10.294C40.4412 9.65 40.5812 9.08067 40.8612 8.586C41.1412 8.09133 41.5239 7.704 42.0092 7.424C42.5039 7.13467 43.0685 6.99 43.7032 6.99C44.5245 6.99 45.2199 7.18133 45.7892 7.564C46.3585 7.94667 46.7925 8.50667 47.0912 9.244C47.3899 9.972 47.5392 10.854 47.5392 11.89C47.5392 13.0007 47.3712 13.948 47.0352 14.732C46.6992 15.516 46.2139 16.1133 45.5792 16.524C44.9539 16.9347 44.1979 17.14 43.3112 17.14ZM43.8152 12.03C44.1512 12.03 44.4452 11.9553 44.6972 11.806C44.9585 11.6567 45.1592 11.4467 45.2992 11.176C45.4392 10.896 45.5092 10.5787 45.5092 10.224C45.5092 9.86 45.4392 9.54267 45.2992 9.272C45.1592 9.00133 44.9585 8.79133 44.6972 8.642C44.4452 8.48333 44.1512 8.404 43.8152 8.404C43.4792 8.404 43.1852 8.48333 42.9332 8.642C42.6812 8.79133 42.4805 9.00133 42.3312 9.272C42.1912 9.54267 42.1212 9.86 42.1212 10.224C42.1212 10.5787 42.1912 10.896 42.3312 11.176C42.4805 11.4467 42.6812 11.6567 42.9332 11.806C43.1852 11.9553 43.4792 12.03 43.8152 12.03Z" fill="#1A3E3E"/>
</svg>
